Coordinates
version=1
nRows=17
nColumns=38
inDegrees=no

Units are S.I. units (second, meters, Newtons, ...)
If the header above contains a line with 'inDegrees', this indicates whether rotational values are in degrees (yes) or radians (no).

endheader
time	pelvis_tilt	pelvis_list	pelvis_rotation	pelvis_tx	pelvis_ty	pelvis_tz	hip_flexion_r	hip_adduction_r	hip_rotation_r	knee_angle_r	ankle_angle_r	subtalar_angle_r	mtp_angle_r	hip_flexion_l	hip_adduction_l	hip_rotation_l	knee_angle_l	ankle_angle_l	subtalar_angle_l	mtp_angle_l	lumbar_extension	lumbar_bending	lumbar_rotation	arm_flex_r	arm_add_r	arm_rot_r	elbow_flex_r	pro_sup_r	wrist_flex_r	wrist_dev_r	arm_flex_l	arm_add_l	arm_rot_l	elbow_flex_l	pro_sup_l	wrist_flex_l	wrist_dev_l
0.81	1.67664	1.53091	0.0277419	0.644595	0.0437565	0.95437	0.327969	-0.116938	-0.134468	1.28951	-0.392006	0	0	0.042729	-0.0209475	-0.125928	0.298994	-0.285452	0	0	-0.0500381	0.0313218	-0.0445546	-0.00972267	-0.241558	0.239732	0.713638	1.5708	0	0	0.0183367	-0.299348	0.506218	0.633994	1.5708	0	0
0.82	1.68027	1.52737	0.0259427	0.643851	0.0522069	0.95482	0.348741	-0.115771	-0.137302	1.27794	-0.378272	0	0	0.0295236	-0.0252782	-0.123711	0.293045	-0.281883	0	0	-0.0507903	0.0363804	-0.0489013	-0.0114945	-0.241616	0.231399	0.713294	1.5708	0	0	0.0302961	-0.298025	0.50688	0.635298	1.5708	0	0
0.83	1.68815	1.52436	0.0200055	0.6431	0.0606421	0.955188	0.367794	-0.114904	-0.139953	1.26188	-0.364251	0	0	0.0158023	-0.0288962	-0.12196	0.28678	-0.27816	0	0	-0.0520099	0.0409239	-0.0533114	-0.013026	-0.241752	0.223376	0.712761	1.5708	0	0	0.0415932	-0.296692	0.505468	0.637982	1.5708	0	0
0.84	1.69872	1.52174	0.0117795	0.642347	0.0689918	0.955445	0.385105	-0.114541	-0.142923	1.24165	-0.350338	0	0	0.0019047	-0.0319934	-0.119623	0.280305	-0.274725	0	0	-0.0537829	0.0450267	-0.0579723	-0.0141919	-0.242073	0.216011	0.712159	1.5708	0	0	0.0527205	-0.295398	0.502691	0.641634	1.5708	0	0
0.85	1.70328	1.5196	0.00900766	0.641657	0.077344	0.955556	0.401393	-0.114451	-0.145069	1.21803	-0.336999	0	0	-0.0117528	-0.0347152	-0.118636	0.27366	-0.271705	0	0	-0.0553876	0.0486755	-0.0620377	-0.0151321	-0.242625	0.209243	0.711283	1.5708	0	0	0.0634424	-0.294043	0.499414	0.645803	1.5708	0	0
0.86	1.70075	1.51808	0.0135727	0.640981	0.0856809	0.955518	0.416546	-0.115201	-0.147431	1.19138	-0.324771	0	0	-0.0246315	-0.036951	-0.117963	0.267452	-0.26886	0	0	-0.0566987	0.0517342	-0.0663182	-0.0157631	-0.24338	0.203548	0.709981	1.5708	0	0	0.0737553	-0.29247	0.495271	0.650784	1.5708	0	0
0.87	1.70187	1.51699	0.0143406	0.640425	0.0940746	0.955356	0.429827	-0.116142	-0.149238	1.16154	-0.315182	0	0	-0.0378252	-0.0388445	-0.116408	0.261036	-0.265883	0	0	-0.0582325	0.054184	-0.0704957	-0.0159112	-0.244105	0.19912	0.708038	1.5708	0	0	0.0831858	-0.291162	0.489166	0.657504	1.5708	0	0
0.88	1.70432	1.5166	0.0135872	0.64002	0.102533	0.955023	0.441328	-0.117184	-0.150089	1.12881	-0.307146	0	0	-0.0510781	-0.0402599	-0.115161	0.254875	-0.262874	0	0	-0.0597865	0.0556309	-0.0745514	-0.0157887	-0.244721	0.195937	0.705672	1.5708	0	0	0.0916398	-0.290711	0.482644	0.665897	1.5708	0	0
0.89	1.70834	1.51702	0.0113223	0.639673	0.111017	0.954521	0.451242	-0.118832	-0.150292	1.09359	-0.299636	0	0	-0.0641945	-0.0409798	-0.114187	0.249398	-0.259544	0	0	-0.0614535	0.056152	-0.0786938	-0.0155991	-0.245394	0.193507	0.703371	1.5708	0	0	0.099481	-0.290694	0.47604	0.675635	1.5708	0	0
0.9	1.69131	1.51796	0.029193	0.639352	0.119302	0.953822	0.461524	-0.121207	-0.151479	1.05625	-0.292885	0	0	-0.0755403	-0.0409202	-0.112971	0.244955	-0.255671	0	0	-0.0624334	0.0563212	-0.0818735	-0.0149032	-0.24651	0.191938	0.700899	1.5708	0	0	0.107632	-0.290091	0.469954	0.685198	1.5708	0	0
0.91	1.64737	1.51936	0.0729833	0.63918	0.127468	0.952922	0.472249	-0.123747	-0.152772	1.01706	-0.286344	0	0	-0.084975	-0.0402773	-0.111631	0.24139	-0.251403	0	0	-0.0623371	0.0558794	-0.084032	-0.0137302	-0.247634	0.19141	0.697532	1.5708	0	0	0.115875	-0.289198	0.464031	0.694608	1.5708	0	0
0.92	1.57365	1.52127	0.147261	0.63896	0.135757	0.951775	0.482552	-0.127566	-0.155632	0.975996	-0.279573	0	0	-0.0926108	-0.0387967	-0.109151	0.238725	-0.247017	0	0	-0.0604863	0.0544833	-0.086755	-0.0129218	-0.248229	0.190076	0.693486	1.5708	0	0	0.123347	-0.288481	0.458387	0.703898	1.5708	0	0
0.93	1.48826	1.5237	0.233058	0.638771	0.144148	0.950434	0.491672	-0.131788	-0.157676	0.933215	-0.271914	0	0	-0.0999518	-0.0364728	-0.106964	0.236727	-0.242119	0	0	-0.0584026	0.0520848	-0.0891154	-0.0126023	-0.248365	0.187413	0.689739	1.5708	0	0	0.130151	-0.288125	0.453009	0.713989	1.5708	0	0
0.94	1.39831	1.52586	0.322849	0.638678	0.152599	0.948992	0.499174	-0.135352	-0.159233	0.887956	-0.263877	0	0	-0.107367	-0.0341886	-0.105605	0.235384	-0.236702	0	0	-0.0566073	0.0496118	-0.0906711	-0.0126127	-0.248537	0.184673	0.686231	1.5708	0	0	0.136731	-0.287511	0.447647	0.72423	1.5708	0	0
0.95	1.27274	1.52791	0.447524	0.638738	0.161096	0.947343	0.506849	-0.138889	-0.159819	0.841181	-0.255823	0	0	-0.113588	-0.031115	-0.104808	0.234732	-0.230847	0	0	-0.0537255	0.0462085	-0.0912695	-0.0129833	-0.248696	0.182646	0.682559	1.5708	0	0	0.14274	-0.286645	0.441789	0.734454	1.5708	0	0
0.96	1.12264	1.52898	0.596294	0.63898	0.16967	0.945553	0.514065	-0.141775	-0.160324	0.793069	-0.247436	0	0	-0.119102	-0.0279273	-0.103534	0.234574	-0.224719	0	0	-0.0501149	0.042486	-0.0911812	-0.0134096	-0.248386	0.180295	0.678421	1.5708	0	0	0.148205	-0.285655	0.43582	0.744533	1.5708	0	0
0.97	0.963854	1.52875	0.753542	0.639362	0.178339	0.943672	0.52009	-0.143802	-0.161051	0.743248	-0.238233	0	0	-0.124187	-0.0249095	-0.101788	0.234786	-0.218338	0	0	-0.0460068	0.0388047	-0.0907332	-0.0140487	-0.247519	0.177018	0.674137	1.5708	0	0	0.15318	-0.284531	0.430071	0.754119	1.5708	0	0
